<mxfile host="app.diagrams.net" modified="2024-06-13T07:16:20.055Z" agent="Mozilla/5.0 (X11; Ubuntu; Linux x86_64; rv:126.0) Gecko/20100101 Firefox/126.0" etag="ydGO_8BZtyARwc9Pb6xv" version="24.5.4" type="github">
  <diagram name="Page-1" id="fjhc9WmCAPA5yqycb13B">
    <mxGraphModel dx="1834" dy="1236" grid="0" gridSize="10" guides="1" tooltips="1" connect="1" arrows="1" fold="1" page="0" pageScale="1" pageWidth="850" pageHeight="1100" math="0" shadow="0">
      <root>
        <mxCell id="0" />
        <mxCell id="1" parent="0" />
        <mxCell id="rqjBSttxW-ZX8N3Msv1J-11" style="edgeStyle=none;curved=1;rounded=0;orthogonalLoop=1;jettySize=auto;html=1;exitX=0.5;exitY=0;exitDx=0;exitDy=0;entryX=0.5;entryY=1;entryDx=0;entryDy=0;fontSize=12;startSize=8;endSize=8;" edge="1" parent="1" source="rqjBSttxW-ZX8N3Msv1J-1" target="rqjBSttxW-ZX8N3Msv1J-5">
          <mxGeometry relative="1" as="geometry" />
        </mxCell>
        <mxCell id="rqjBSttxW-ZX8N3Msv1J-12" style="edgeStyle=none;curved=1;rounded=0;orthogonalLoop=1;jettySize=auto;html=1;entryX=0.5;entryY=1;entryDx=0;entryDy=0;fontSize=12;startSize=8;endSize=8;" edge="1" parent="1" target="rqjBSttxW-ZX8N3Msv1J-6">
          <mxGeometry relative="1" as="geometry">
            <mxPoint x="-86" y="170" as="sourcePoint" />
          </mxGeometry>
        </mxCell>
        <mxCell id="rqjBSttxW-ZX8N3Msv1J-1" value="MM LIB" style="rounded=0;whiteSpace=wrap;html=1;" vertex="1" parent="1">
          <mxGeometry x="-85" y="169" width="160" height="80" as="geometry" />
        </mxCell>
        <mxCell id="rqjBSttxW-ZX8N3Msv1J-8" style="edgeStyle=none;curved=1;rounded=0;orthogonalLoop=1;jettySize=auto;html=1;entryX=0.5;entryY=1;entryDx=0;entryDy=0;fontSize=12;startSize=8;endSize=8;exitX=0.11;exitY=0.031;exitDx=0;exitDy=0;exitPerimeter=0;" edge="1" parent="1" source="rqjBSttxW-ZX8N3Msv1J-2" target="rqjBSttxW-ZX8N3Msv1J-1">
          <mxGeometry relative="1" as="geometry" />
        </mxCell>
        <mxCell id="rqjBSttxW-ZX8N3Msv1J-9" style="edgeStyle=none;curved=1;rounded=0;orthogonalLoop=1;jettySize=auto;html=1;entryX=0.5;entryY=1;entryDx=0;entryDy=0;fontSize=12;startSize=8;endSize=8;" edge="1" parent="1" source="rqjBSttxW-ZX8N3Msv1J-2" target="rqjBSttxW-ZX8N3Msv1J-3">
          <mxGeometry relative="1" as="geometry" />
        </mxCell>
        <mxCell id="rqjBSttxW-ZX8N3Msv1J-10" style="edgeStyle=none;curved=1;rounded=0;orthogonalLoop=1;jettySize=auto;html=1;entryX=0.5;entryY=1;entryDx=0;entryDy=0;fontSize=12;startSize=8;endSize=8;" edge="1" parent="1" target="rqjBSttxW-ZX8N3Msv1J-4">
          <mxGeometry relative="1" as="geometry">
            <mxPoint x="565" y="293" as="sourcePoint" />
          </mxGeometry>
        </mxCell>
        <mxCell id="rqjBSttxW-ZX8N3Msv1J-2" value="&lt;font style=&quot;font-size: 22px;&quot;&gt;系统层（OS&amp;amp;HAL）&lt;/font&gt;" style="rounded=0;whiteSpace=wrap;html=1;" vertex="1" parent="1">
          <mxGeometry x="-85" y="296" width="734" height="96" as="geometry" />
        </mxCell>
        <mxCell id="rqjBSttxW-ZX8N3Msv1J-22" style="edgeStyle=none;curved=1;rounded=0;orthogonalLoop=1;jettySize=auto;html=1;entryX=0.5;entryY=1;entryDx=0;entryDy=0;fontSize=12;startSize=8;endSize=8;" edge="1" parent="1" source="rqjBSttxW-ZX8N3Msv1J-3" target="rqjBSttxW-ZX8N3Msv1J-14">
          <mxGeometry relative="1" as="geometry" />
        </mxCell>
        <mxCell id="rqjBSttxW-ZX8N3Msv1J-23" style="edgeStyle=none;curved=1;rounded=0;orthogonalLoop=1;jettySize=auto;html=1;entryX=0.5;entryY=1;entryDx=0;entryDy=0;fontSize=12;startSize=8;endSize=8;" edge="1" parent="1" source="rqjBSttxW-ZX8N3Msv1J-3" target="rqjBSttxW-ZX8N3Msv1J-13">
          <mxGeometry relative="1" as="geometry" />
        </mxCell>
        <mxCell id="rqjBSttxW-ZX8N3Msv1J-3" value="BSP" style="rounded=0;whiteSpace=wrap;html=1;" vertex="1" parent="1">
          <mxGeometry x="200" y="171" width="160" height="80" as="geometry" />
        </mxCell>
        <mxCell id="rqjBSttxW-ZX8N3Msv1J-4" value="&lt;div&gt;AI LIB&lt;br&gt;&lt;/div&gt;" style="rounded=0;whiteSpace=wrap;html=1;" vertex="1" parent="1">
          <mxGeometry x="485" y="169" width="160" height="80" as="geometry" />
        </mxCell>
        <mxCell id="rqjBSttxW-ZX8N3Msv1J-5" value="&lt;div&gt;CV&lt;/div&gt;&lt;div&gt;cv.ko&lt;br&gt;&lt;/div&gt;" style="rounded=0;whiteSpace=wrap;html=1;" vertex="1" parent="1">
          <mxGeometry x="-85" y="38" width="160" height="80" as="geometry" />
        </mxCell>
        <mxCell id="rqjBSttxW-ZX8N3Msv1J-21" style="edgeStyle=none;curved=1;rounded=0;orthogonalLoop=1;jettySize=auto;html=1;entryX=0;entryY=1;entryDx=0;entryDy=0;fontSize=12;startSize=8;endSize=8;" edge="1" parent="1" source="rqjBSttxW-ZX8N3Msv1J-6" target="rqjBSttxW-ZX8N3Msv1J-15">
          <mxGeometry relative="1" as="geometry" />
        </mxCell>
        <mxCell id="rqjBSttxW-ZX8N3Msv1J-6" value="&lt;div&gt;AV&lt;/div&gt;&lt;div&gt;venc.ko&lt;br&gt;&lt;/div&gt;" style="rounded=0;whiteSpace=wrap;html=1;" vertex="1" parent="1">
          <mxGeometry x="-280" y="38" width="160" height="80" as="geometry" />
        </mxCell>
        <mxCell id="rqjBSttxW-ZX8N3Msv1J-19" style="edgeStyle=none;curved=1;rounded=0;orthogonalLoop=1;jettySize=auto;html=1;fontSize=12;startSize=8;endSize=8;" edge="1" parent="1" source="rqjBSttxW-ZX8N3Msv1J-13">
          <mxGeometry relative="1" as="geometry">
            <mxPoint x="186" y="-41" as="targetPoint" />
          </mxGeometry>
        </mxCell>
        <mxCell id="rqjBSttxW-ZX8N3Msv1J-13" value="&lt;div&gt;外设&lt;br&gt;&lt;/div&gt;&lt;div&gt;&lt;br&gt;&lt;/div&gt;&lt;div&gt;板级 芯片级外设&lt;br&gt;&lt;/div&gt;" style="rounded=0;whiteSpace=wrap;html=1;" vertex="1" parent="1">
          <mxGeometry x="106" y="38" width="160" height="80" as="geometry" />
        </mxCell>
        <mxCell id="rqjBSttxW-ZX8N3Msv1J-14" value="&lt;div&gt;外设&lt;br&gt;&lt;/div&gt;&lt;div&gt;&lt;br&gt;&lt;/div&gt;&lt;div&gt;显示&lt;br&gt;&lt;/div&gt;" style="rounded=0;whiteSpace=wrap;html=1;" vertex="1" parent="1">
          <mxGeometry x="297" y="38" width="160" height="80" as="geometry" />
        </mxCell>
        <mxCell id="rqjBSttxW-ZX8N3Msv1J-15" value="&lt;div&gt;&lt;font style=&quot;font-size: 22px;&quot;&gt;应用层&lt;/font&gt;&lt;/div&gt;&lt;div style=&quot;font-size: 14px;&quot;&gt;&lt;font style=&quot;font-size: 14px;&quot;&gt;多媒体应用、demo pipeline demo AI-box demo &lt;br&gt;&lt;/font&gt;&lt;/div&gt;" style="rounded=0;whiteSpace=wrap;html=1;" vertex="1" parent="1">
          <mxGeometry x="-85" y="-138" width="734" height="96" as="geometry" />
        </mxCell>
        <mxCell id="rqjBSttxW-ZX8N3Msv1J-16" style="edgeStyle=none;curved=1;rounded=0;orthogonalLoop=1;jettySize=auto;html=1;entryX=0.886;entryY=0.99;entryDx=0;entryDy=0;entryPerimeter=0;fontSize=12;startSize=8;endSize=8;" edge="1" parent="1" source="rqjBSttxW-ZX8N3Msv1J-4" target="rqjBSttxW-ZX8N3Msv1J-15">
          <mxGeometry relative="1" as="geometry" />
        </mxCell>
        <mxCell id="rqjBSttxW-ZX8N3Msv1J-17" style="edgeStyle=none;curved=1;rounded=0;orthogonalLoop=1;jettySize=auto;html=1;exitX=0.5;exitY=0;exitDx=0;exitDy=0;entryX=0.628;entryY=0.99;entryDx=0;entryDy=0;entryPerimeter=0;fontSize=12;startSize=8;endSize=8;" edge="1" parent="1" source="rqjBSttxW-ZX8N3Msv1J-14" target="rqjBSttxW-ZX8N3Msv1J-15">
          <mxGeometry relative="1" as="geometry" />
        </mxCell>
        <mxCell id="rqjBSttxW-ZX8N3Msv1J-20" style="edgeStyle=none;curved=1;rounded=0;orthogonalLoop=1;jettySize=auto;html=1;exitX=0.5;exitY=0;exitDx=0;exitDy=0;entryX=0.108;entryY=0.979;entryDx=0;entryDy=0;entryPerimeter=0;fontSize=12;startSize=8;endSize=8;" edge="1" parent="1" source="rqjBSttxW-ZX8N3Msv1J-5" target="rqjBSttxW-ZX8N3Msv1J-15">
          <mxGeometry relative="1" as="geometry" />
        </mxCell>
      </root>
    </mxGraphModel>
  </diagram>
</mxfile>
